<?xml version="1.0" encoding="utf-8"?>
<!-- Generator: Adobe Illustrator 16.0.0, SVG Export Plug-In . SVG Version: 6.00 Build 0)  -->
<!DOCTYPE svg PUBLIC "-//W3C//DTD SVG 1.1//EN" "http://www.w3.org/Graphics/SVG/1.1/DTD/svg11.dtd">
<svg version="1.1" id="Layer_1" xmlns="http://www.w3.org/2000/svg" xmlns:xlink="http://www.w3.org/1999/xlink" x="0px" y="0px"
	 width="500px" height="306px" viewBox="0 0 500 306" enable-background="new 0 0 500 306" xml:space="preserve">
<rect x="17.5" y="20.833" fill="#FFFFFF" stroke="#000000" stroke-miterlimit="10" width="471" height="19.99"/>
<rect x="15.585" y="76.823" fill="#FFFFFF" stroke="#000000" stroke-miterlimit="10" width="472.915" height="212.677"/>
<path fill="#FFFFFF" stroke="#000000" stroke-width="6" stroke-miterlimit="10" d="M490.631,280.441
	c0.003,6.625-5.37,11.998-11.997,12l-451.001,0.093c-6.627,0.003-12.001-5.369-12.002-11.996l-0.052-249
	c-0.002-6.629,5.371-12.001,11.998-12.002l450.999-0.095c6.629-0.001,12.005,5.37,12.004,11.997L490.631,280.441z"/>
<rect x="15.585" y="40.823" stroke="#000000" stroke-miterlimit="10" width="475" height="36"/>
<path d="M477.5,272.419c0,5.569-4.512,10.081-10.081,10.081h-94.083c-5.566,0-10.078-4.512-10.078-10.081v-18.848
	c0-5.569,4.512-10.081,10.078-10.081h94.083c5.569,0,10.081,4.512,10.081,10.081V272.419z"/>
</svg>
