<?xml version="1.0" encoding="utf-8"?>
<!-- Generator: Adobe Illustrator 16.0.0, SVG Export Plug-In . SVG Version: 6.00 Build 0)  -->
<!DOCTYPE svg PUBLIC "-//W3C//DTD SVG 1.1//EN" "http://www.w3.org/Graphics/SVG/1.1/DTD/svg11.dtd">
<svg version="1.1" id="Layer_1" xmlns="http://www.w3.org/2000/svg" xmlns:xlink="http://www.w3.org/1999/xlink" x="0px" y="0px"
	 width="595.281px" height="426px" viewBox="0 0 595.281 426" enable-background="new 0 0 595.281 426" xml:space="preserve">
<rect x="46.333" y="95.882" fill="#FFFFFF" width="509.613" height="291.618"/>
<g>
	<path d="M571.458,166.293h-8.984v-54.859c0-20.307-20.395-37.223-44.855-37.223H71.462c-1.146,0-2.288-0.199-3.404-0.541
		c-14.089,0.081-28.176,0.32-42.264,0.415v295.234c0,20.386,20.391,37.303,44.862,37.303h444.509
		c24.5,0,44.891-16.917,44.891-37.303V297.58H569c8.184,0,14.709-5.413,14.709-12.145V178.478
		C586.127,171.648,579.602,166.293,571.458,166.293z M531.479,369.317c0,6.893-6.523,12.309-14.664,12.309H72.288
		c-8.162,0-14.688-5.416-14.688-12.309V98.567h460.018c8.183,0,14.677,5.382,14.677,12.206v54.793H420.581
		c-42.439,0-77.497,29.826-77.497,65.614c0,36.693,34.254,65.797,77.497,65.797h110.897V369.317z M555.946,272.543H420.581v0.684
		c-26.117,0-47.313-18.231-47.313-41.276c0-22.347,21.194-41.323,47.313-41.323h135.365V272.543z"/>
	<path d="M425.453,210.354c14.854,0,26.921,9.968,26.921,22.366c0,12.313-12.067,22.313-26.921,22.313s-26.922-10.002-26.922-22.313
		C398.531,220.321,410.6,210.354,425.453,210.354z"/>
</g>
</svg>
