<?xml version="1.0" encoding="utf-8"?>
<!-- Generator: Adobe Illustrator 16.0.0, SVG Export Plug-In . SVG Version: 6.00 Build 0)  -->
<!DOCTYPE svg PUBLIC "-//W3C//DTD SVG 1.1//EN" "http://www.w3.org/Graphics/SVG/1.1/DTD/svg11.dtd">
<svg version="1.1" id="Layer_1" xmlns="http://www.w3.org/2000/svg" xmlns:xlink="http://www.w3.org/1999/xlink" x="0px" y="0px"
	 width="595.281px" height="426px" viewBox="0 0 595.281 426" enable-background="new 0 0 595.281 426" xml:space="preserve">
<rect x="46.333" y="95.882" fill="#FFFFFF" width="507.899" height="291.618"/>
<g>
	<path d="M571.458,166.293h-8.984v-54.859c0-20.307-20.395-37.223-44.855-37.223H71.462c-7.336,0-14.67-7.494-14.67-14.899v-2.697
		c0-6.831,6.52-12.235,14.67-12.235h415.97c8.187,0,14.716,5.404,14.716,12.235c0,6.734,6.523,12.136,14.667,12.136
		c8.141,0,14.664-5.401,14.664-12.136c0-20.319-20.393-37.235-44.852-37.235H70.656c-24.471,0-44.862,16.916-44.862,37.235v1.959
		v310.745c0,20.386,20.391,37.303,44.862,37.303h444.509c24.5,0,44.891-16.917,44.891-37.303V297.58H569
		c8.184,0,14.709-5.413,14.709-12.145V178.478C586.127,171.648,579.602,166.293,571.458,166.293z M420.581,273.227
		c-26.117,0-47.313-18.231-47.313-41.276c0-22.347,21.194-41.323,47.313-41.323h135.365v81.916H420.581V273.227z M531.479,369.317
		c0,6.893-6.523,12.309-14.664,12.309H72.288c-8.162,0-14.688-5.416-14.688-12.309V98.567h460.018
		c8.183,0,14.677,5.382,14.677,12.206v54.793H420.581c-42.439,0-77.497,29.826-77.497,65.614c0,36.693,34.254,65.797,77.497,65.797
		h110.897V369.317z"/>
	<path d="M425.453,210.354c14.854,0,26.921,9.968,26.921,22.366c0,12.313-12.067,22.313-26.921,22.313s-26.922-10.002-26.922-22.313
		C398.531,220.321,410.6,210.354,425.453,210.354z"/>
</g>
</svg>
