<?xml version="1.0" encoding="utf-8"?>
<!-- Generator: Adobe Illustrator 16.0.0, SVG Export Plug-In . SVG Version: 6.00 Build 0)  -->
<!DOCTYPE svg PUBLIC "-//W3C//DTD SVG 1.1//EN" "http://www.w3.org/Graphics/SVG/1.1/DTD/svg11.dtd">
<svg version="1.1" id="Layer_1" xmlns="http://www.w3.org/2000/svg" xmlns:xlink="http://www.w3.org/1999/xlink" x="0px" y="0px"
	 width="595.281px" height="426px" viewBox="0 205.445 595.281 426" enable-background="new 0 205.445 595.281 426"
	 xml:space="preserve">
<g>
	<path d="M571.458,371.974h-8.984v-54.859c0-20.306-20.395-37.223-44.856-37.223H71.462c-7.336,0-14.67-7.493-14.67-14.899v-2.697
		c0-6.831,6.52-12.236,14.67-12.236h415.97c8.186,0,14.715,5.405,14.715,12.236c0,6.734,6.524,12.136,14.667,12.136
		c8.141,0,14.665-5.402,14.665-12.136c0-20.32-20.393-37.235-44.852-37.235H70.656c-24.471,0-44.862,16.915-44.862,37.235v1.959
		v310.745c0,20.386,20.391,37.303,44.862,37.303h444.509c24.5,0,44.891-16.917,44.891-37.303v-71.738H569
		c8.184,0,14.709-5.413,14.709-12.145V384.159C586.127,377.33,579.602,371.974,571.458,371.974z M420.581,478.908
		c-26.117,0-47.312-18.231-47.312-41.276c0-22.347,21.194-41.324,47.312-41.324h135.365v81.917H420.581V478.908z M531.479,574.999
		c0,6.893-6.524,12.309-14.665,12.309H72.288c-8.162,0-14.688-5.416-14.688-12.309v-270.75h460.018
		c8.183,0,14.677,5.382,14.677,12.206v54.793H420.581c-42.439,0-77.497,29.826-77.497,65.614c0,36.694,34.254,65.797,77.497,65.797
		h110.898V574.999z"/>
	<path d="M425.453,416.035c14.854,0,26.921,9.968,26.921,22.366c0,12.313-12.067,22.314-26.921,22.314
		c-14.853,0-26.922-10.002-26.922-22.314C398.531,426.003,410.6,416.035,425.453,416.035z"/>
</g>
</svg>
